#!OML:ASF I:\Actors\actors\Patient Classification 2\Patient 1\Session 1\actor1.ASF
:FULLY-SPECIFIED
:DEGREES
144
root -1.19146 18.2013 5.9335 1.27777 0.449817 -5.83567
lowerback 6.25606 0.00950595 3.4952
upperback -0.549729 0.264628 -0.338414
thorax -4.0641 0.0506857 -2.33993
lowerneck -18.4188 0.148402 0.910353
upperneck 27.1258 0.763642 -2.74255
head 11.9869 0.0727447 -1.06412
rclavicle -8.34896e-015 -6.36111e-015
rhumerus 13.7524 29.7614 -52.5488
rradius 93.4766
rwrist -8.14691
rhand -5.70286 -34.6981
rfingers 7.12502
rthumb 20.118 -63.6765
lclavicle -8.34896e-015 -6.36111e-015
lhumerus -3.43847 -33.2993 84.4437
lradius 88.5606
lwrist 18.5355
lhand -23.2188 -31.5289
lfingers 7.12502
lthumb 3.23181 -1.57364
rfemur 0 0 0
rtibia 0
rfoot 0 0
rtoes 0
lfemur 16.8697 -6.92526 -9.96472
ltibia -19.4622
lfoot -1.78649 18.6694
ltoes -12.4098
145
root -1.19563 18.2002 5.93993 1.26243 0.822319 -5.89704
lowerback 6.1754 0.100347 3.32963
upperback -0.539504 0.364763 -0.468658
thorax -4.00123 0.103871 -2.3908
lowerneck -18.4203 0.0825278 0.917857
upperneck 27.376 0.684879 -2.77288
head 12.0838 0.0339379 -1.09195
rclavicle -4.96962e-017 -3.18055e-015
rhumerus 14.9617 30.6309 -51.2923
rradius 93.0748
rwrist -7.36788
rhand -5.18068 -34.807
rfingers 7.12502
rthumb 20.6198 -63.7317
lclavicle -4.96962e-017 -3.18055e-015
lhumerus -3.75219 -33.3824 85.1988
lradius 88.2539
lwrist 17.5904
lhand -23.087 -31.8852
lfingers 7.12502
lthumb 3.35908 -1.93195
rfemur 0 0 0
rtibia 0
rfoot 0 0
rtoes 0
lfemur 16.8372 -7.19714 -9.88538
ltibia -19.5362
lfoot -1.67707 18.6326
ltoes -12.6567
146
root -1.19959 18.1997 5.94495 1.2734 1.1821 -5.91425
lowerback 6.13218 0.204088 3.08163
upperback -0.542116 0.479067 -0.568607
thorax -3.97277 0.165371 -2.36526
lowerneck -18.5557 0.00997182 0.6752
upperneck 27.7771 0.567974 -2.43565
head 12.2657 -0.00060937 -0.946548
rclavicle 9.93923e-017 -2.70347e-014
rhumerus 15.9754 31.5229 -50.1092
rradius 92.718
rwrist -6.43388
rhand -4.59554 -34.9942
rfingers 7.12502
rthumb 21.182 -63.857
lclavicle 9.93923e-017 -2.70347e-014
lhumerus -3.96936 -33.6341 85.7859
lradius 87.8724
lwrist 16.6758
lhand -22.981 -32.3072
lfingers 7.12502
lthumb 3.46143 -2.3556
rfemur 0 0 0
rtibia 0
rfoot 0 0
rtoes 0
lfemur 16.7512 -7.42802 -9.84654
ltibia -19.5755
lfoot -1.57065 18.5624
ltoes -12.8809
147
root -1.20366 18.2006 5.94906 1.30854 1.48537 -5.93321
lowerback 6.10571 0.3305 2.82786
upperback -0.550829 0.62397 -0.669732
thorax -3.95884 0.241824 -2.34055
lowerneck -18.698 -0.0886638 0.467917
upperneck 28.0879 0.419463 -2.16514
head 12.4149 -0.0536406 -0.835701
rclavicle 6.75868e-015 1.35174e-014
rhumerus 16.8606 32.4913 -48.9684
rradius 92.3601
rwrist -5.54551
rhand -4.25498 -35.1222
rfingers 7.12502
rthumb 21.5091 -63.9479
lclavicle 6.75868e-015 1.35174e-014
lhumerus -4.07998 -33.9975 86.261
lradius 87.4966
lwrist 15.9751
lhand -22.9589 -32.5218
lfingers 7.12502
lthumb 3.4828 -2.57049
rfemur 0 0 0
rtibia 0
rfoot 0 0
rtoes 0
lfemur 16.6428 -7.56487 -9.79227
ltibia -19.6029
lfoot -1.43354 18.4434
ltoes -13.1974
148
root -1.20739 18.2023 5.95195 1.33583 1.71513 -5.94829
lowerback 6.10947 0.461122 2.545
upperback -0.558346 0.773664 -0.760128
thorax -3.96168 0.321137 -2.28904
lowerneck -18.7616 -0.189429 0.297855
upperneck 28.3047 0.270661 -1.95223
head 12.5121 -0.109599 -0.751551
rclavicle 9.0447e-015 -1.19271e-014
rhumerus 17.7025 33.5443 -47.8688
rradius 92.0322
rwrist -4.89891
rhand -4.05715 -35.1808
rfingers 7.12502
rthumb 21.6991 -63.9847
lclavicle 9.0447e-015 -1.19271e-014
lhumerus -4.11483 -34.3707 86.6296
lradius 87.2434
lwrist 15.7036
lhand -22.8697 -32.1117
lfingers 7.12502
lthumb 3.56897 -2.16181
rfemur 0 0 0
rtibia 0
rfoot 0 0
rtoes 0
lfemur 16.5616 -7.74395 -9.75422
ltibia -19.6207
lfoot -1.35931 18.4121
ltoes -13.4744
